# xmcd
#
# Track frame offsets:
#   150
#   15868
#   33289
#   51038
#   68794
#   86522
#   104647
#   123862
#   145964
#   163246
#   180159
#   200279
#
# Disc length: 2920 seconds
#
# Revision: 0
# Processed by: cddbd v1.5.2PL0 Copyright (c) Steve Scherf et al.
# Submitted via: GXTranscoder 2.0.1939
#
DISCID=940b660c
DTITLE=Leona Lewis - Spirit
DYEAR=1900
DGENRE=Pop
TTITLE0=Whatever It Takes
TTITLE1=Homeless
TTITLE2=Better In Time
TTITLE3=Yesterday
TTITLE4=Take A Bow
TTITLE5=I Will Be
TTITLE6=Angel
TTITLE7=Here I am
TTITLE8=I'm You
TTITLE9=The Best You Never Had
TTITLE10=The First Time Ever I Saw Your Face
TTITLE11=Footprints In The Sand
EXTD=
EXTT0=
EXTT1=
EXTT2=
EXTT3=
EXTT4=
EXTT5=
EXTT6=
EXTT7=
EXTT8=
EXTT9=
EXTT10=
EXTT11=
PLAYORDER=
